<svg width="219" height="301" viewBox="0 0 219 301" fill="none" xmlns="http://www.w3.org/2000/svg">
<path d="M109.5 101.802C125.827 101.802 139.082 115.01 139.082 131.277C139.082 147.545 125.827 160.751 109.5 160.751C93.1734 160.751 79.9175 147.545 79.9175 131.277C79.9176 115.01 93.1734 101.802 109.5 101.802Z" fill="#28B54A" style="fill:#28B54A;fill:color(display-p3 0.1569 0.7098 0.2902);fill-opacity:1;"/>
<path fill-rule="evenodd" clip-rule="evenodd" d="M182.863 0C195.512 0 201.837 2.16854e-05 206.668 2.45721C210.918 4.61859 214.373 8.0674 216.538 12.3093C219 17.1318 219 23.445 219 36.0709V264.929C219 277.555 219 283.868 216.538 288.69C214.373 292.932 210.918 296.381 206.668 298.543C201.837 301 195.512 301 182.863 301H36.1372C25.3464 301 19.1585 301 14.5736 299.474C22.8664 286.487 38.1994 279.847 56.05 279.847H195.054V263.434C195.054 205.158 138.244 191.048 109.5 191.048C82.7859 191.048 31.8313 203.236 24.7668 251.737C30.3504 249.915 36.2609 248.606 42.4302 247.832C51.5622 214.931 89.5319 207.46 109.5 207.46C132.304 207.46 178.582 217.204 178.582 263.434H56.05C33.27 263.434 13.5522 271.697 1.76861 287.125C0.000367122 282.48 0 276.236 0 264.929V36.0709C0 23.445 2.66473e-05 17.1318 2.46173 12.3093C4.62711 8.0674 8.08221 4.61859 12.3319 2.45721C17.1633 1.93135e-05 23.488 0 36.1372 0H182.863ZM109.5 85.3901C84.0818 85.3901 63.4457 105.951 63.4457 131.277C63.4457 156.602 84.0818 177.163 109.5 177.163C134.918 177.163 155.554 156.602 155.554 131.277C155.554 105.951 134.918 85.3901 109.5 85.3901ZM83.7384 25.1609C78.3246 25.161 73.9357 29.5418 73.9356 34.9457C73.9356 40.3497 78.3245 44.7305 83.7384 44.7305H134.325C139.739 44.7305 144.128 40.3497 144.128 34.9457C144.128 29.5418 139.739 25.1609 134.325 25.1609H83.7384Z" fill="#28B54A" style="fill:#28B54A;fill:color(display-p3 0.1569 0.7098 0.2902);fill-opacity:1;"/>
</svg>
