<svg width="616" height="848" viewBox="0 0 616 848" fill="none" xmlns="http://www.w3.org/2000/svg">
<path d="M513.737 0C549.274 0 567.043 6.11924e-05 580.616 6.91602C592.555 12.9994 602.262 22.7063 608.346 34.6455C615.262 48.2188 615.262 65.9877 615.262 101.524V745.662C615.262 781.199 615.262 798.968 608.346 812.541C602.262 824.48 592.556 834.188 580.616 840.271C567.043 847.187 549.274 847.188 513.737 847.188H101.524C71.2086 847.188 53.824 847.186 40.9434 842.893C64.2413 806.339 107.318 787.649 157.468 787.649H547.986V741.456C547.986 577.434 388.386 537.72 307.631 537.72C232.58 537.72 89.4272 572.023 69.5801 708.534C85.2667 703.406 101.872 699.722 119.204 697.542C144.859 604.94 251.532 583.913 307.631 583.913C371.696 583.913 501.71 611.336 501.71 741.456H157.468C93.4693 741.456 38.0737 764.712 4.96875 808.136C0.00103129 795.063 0 777.488 0 745.662V101.524C0 65.9877 7.48056e-05 48.2188 6.91602 34.6455C12.9995 22.7063 22.7063 12.9994 34.6455 6.91602C48.2188 5.44631e-05 65.9874 0 101.524 0H513.737ZM307.631 240.337C236.221 240.337 178.245 298.208 178.245 369.488C178.245 440.769 236.221 498.64 307.631 498.64C379.041 498.64 437.017 440.769 437.017 369.488C437.017 298.208 379.041 240.337 307.631 240.337ZM307.631 286.529C353.501 286.529 390.74 323.703 390.74 369.488C390.74 415.276 353.501 452.447 307.631 452.447C261.763 452.447 224.521 415.276 224.521 369.488C224.521 323.703 261.763 286.529 307.631 286.529ZM235.256 70.8174C220.046 70.8176 207.716 83.1477 207.716 98.3574C207.716 113.567 220.046 125.897 235.256 125.897H377.375C392.585 125.897 404.916 113.567 404.916 98.3574C404.916 83.1476 392.585 70.8174 377.375 70.8174H235.256Z" fill="white" style="fill:white;fill-opacity:1;"/>
</svg>
