<?xml version="1.0" encoding="UTF-8"?>
<!-- Generated by Pixelmator Pro 3.6.10 -->
<svg width="434" height="434" viewBox="0 0 434 434" xmlns="http://www.w3.org/2000/svg">
    <path id="Path" fill="#28b54a" stroke="none" d="M 119.944 321.557007 C 105.5205 321.557007 91.985397 318.822021 79.338898 313.354004 C 66.692406 307.953003 55.584 300.468018 46.013702 290.897003 C 36.443401 281.259003 28.923801 270.149994 23.45508 257.572021 C 18.054689 244.925995 15.354492 231.390991 15.354492 216.966995 C 15.354492 202.542999 18.054689 189.007797 23.45508 176.361298 C 28.923801 163.714783 36.443401 152.606384 46.013702 143.036102 C 55.584 133.46579 66.692406 125.980499 79.338898 120.580078 C 91.985397 115.111328 105.5205 112.376953 119.944 112.376953 C 134.367996 112.376953 147.903 115.111328 160.550003 120.580078 C 173.195999 125.980499 184.304993 133.46579 193.875 143.036102 C 203.445007 152.606384 210.931 163.714783 216.330994 176.361298 C 221.800003 189.007797 224.533997 202.542999 224.533997 216.966995 C 224.533997 231.390991 221.800003 244.925995 216.330994 257.572021 C 210.931 270.149994 203.445007 281.259003 193.875 290.897003 C 184.304993 300.468018 173.195999 307.953003 160.550003 313.354004 C 147.903 318.822021 134.367996 321.557007 119.944 321.557007 Z M 133.171997 263.52002 C 134.67601 263.52002 136.248001 263.484985 137.889008 263.416992 C 139.598007 263.279999 141.20401 263.041016 142.708008 262.699005 C 144.279999 262.289001 145.613007 261.674011 146.707001 260.854004 C 147.869003 259.964996 148.449997 258.734009 148.449997 257.161987 C 148.449997 255.453003 147.903 254.188004 146.809998 253.367996 C 145.783997 252.548004 144.417007 252.138 142.708008 252.138 C 140.999008 252.138 139.598007 252.240005 138.503998 252.445007 C 137.479004 252.582001 135.906006 252.649994 133.787003 252.649994 C 124.764 252.649994 117.209999 250.634003 111.125999 246.600998 C 105.110397 242.567001 101.008797 236.824997 98.821297 229.373993 L 132.044006 229.373993 C 133.001007 229.373993 133.820999 229.031998 134.505005 228.348999 C 135.188004 227.597 135.529999 226.776001 135.529999 225.888 C 135.529999 224.862 135.188004 224.007996 134.505005 223.32399 C 133.820999 222.640991 133.001007 222.298996 132.044006 222.298996 L 97.385696 222.298996 C 97.317398 221.410004 97.249001 220.487 97.180702 219.529999 C 97.180702 218.50499 97.180702 217.513992 97.180702 216.556992 C 97.180702 215.462997 97.180702 214.403 97.180702 213.377991 C 97.249001 212.352997 97.317398 211.327103 97.385696 210.301804 L 132.044006 210.301804 C 133.001007 210.301804 133.820999 209.994095 134.505005 209.378891 C 135.188004 208.695297 135.529999 207.84079 135.529999 206.815399 C 135.529999 205.858398 135.188004 205.038101 134.505005 204.354492 C 133.820999 203.670898 133.001007 203.329102 132.044006 203.329102 L 98.923798 203.329102 C 101.042999 196.014603 105.042 190.375 110.920898 186.410202 C 116.800003 182.376999 124.319 180.360397 133.479004 180.360397 C 135.324997 180.360397 137.033997 180.428711 138.606003 180.565399 C 140.247009 180.702103 141.613998 180.770508 142.708008 180.770508 C 144.417007 180.770508 145.783997 180.360397 146.809998 179.540009 C 147.903 178.651398 148.449997 177.352509 148.449997 175.643585 C 148.449997 174.208008 147.972 173.045898 147.014999 172.157196 C 146.057999 171.200195 144.621994 170.482391 142.708008 170.003906 C 141.408997 169.730499 139.939011 169.559601 138.299011 169.49118 C 136.727005 169.354492 135.018005 169.286102 133.171997 169.286102 C 125.652 169.286102 118.611 170.516602 112.048798 172.977509 C 105.486298 175.438507 99.880898 179.198196 95.232399 184.256805 C 90.652298 189.247101 87.473602 195.604492 85.696297 203.329102 L 73.494102 203.329102 C 72.537102 203.329102 71.716805 203.670898 71.033203 204.354492 C 70.349602 205.038101 70.007805 205.858398 70.007805 206.815399 C 70.007805 207.84079 70.349602 208.695297 71.033203 209.378891 C 71.716805 209.994095 72.537102 210.301804 73.494102 210.301804 L 84.568398 210.301804 C 84.5 211.327103 84.431602 212.352997 84.363297 213.377991 C 84.363297 214.334991 84.363297 215.360001 84.363297 216.453995 C 84.363297 217.410995 84.363297 218.401993 84.363297 219.427994 C 84.431602 220.453003 84.5 221.410004 84.568398 222.298996 L 73.494102 222.298996 C 72.537102 222.298996 71.716805 222.640991 71.033203 223.32399 C 70.349602 224.007996 70.007805 224.862 70.007805 225.888 C 70.007805 226.776001 70.349602 227.597 71.033203 228.348999 C 71.716805 229.031998 72.537102 229.373993 73.494102 229.373993 L 85.696297 229.373993 C 88.225601 240.447998 93.694298 248.925003 102.102501 254.804001 C 110.579102 260.614014 120.935997 263.52002 133.171997 263.52002 Z"/>
</svg>
