<?xml version="1.0" encoding="UTF-8"?>
<!-- Generated by Pixelmator Pro 3.6.9 -->
<svg width="120" height="120" viewBox="0 0 120 120" xmlns="http://www.w3.org/2000/svg">
    <path id="Path-copy-5" fill="#28b54a" stroke="none" d="M 43.144608 101.703659 C 41.540283 101.703659 40.274376 101.264984 39.359409 100.400146 C 38.438175 99.535324 37.993229 98.319542 38.018295 96.765358 L 38.745255 53.812057 C 38.745255 53.147774 38.607384 52.571213 38.325375 52.069862 C 38.043362 51.574783 37.598415 51.198769 36.984261 50.941833 C 35.304764 50.202339 33.932316 49.393906 32.873215 48.516548 C 31.81411 47.632912 31.055817 46.504875 30.598333 45.12616 C 30.14085 43.753708 29.95911 41.942581 30.065647 39.699043 L 31.093418 16.210739 C 31.143553 15.370972 31.400496 14.719223 31.857979 14.261734 C 32.321728 13.804253 32.94215 13.572388 33.731777 13.572388 C 34.502605 13.572388 35.09169 13.810524 35.511574 14.28054 C 35.931454 14.750549 36.144527 15.421112 36.144527 16.285942 L 35.875053 39.122482 C 35.875053 40.576401 36.589447 41.30336 38.018295 41.30336 C 38.657516 41.30336 39.183937 41.12162 39.603817 40.751869 C 40.023697 40.382126 40.236771 39.874512 40.236771 39.241554 L 40.619053 15.602852 C 40.619053 14.781891 40.850929 14.148933 41.308411 13.685181 C 41.765892 13.227707 42.380047 13.002098 43.144608 13.002098 C 43.934235 13.002098 44.554657 13.227707 44.999607 13.685181 C 45.444553 14.148933 45.682697 14.781891 45.707764 15.602852 L 46.090042 39.241554 C 46.090042 39.874512 46.290585 40.382126 46.704197 40.751869 C 47.111546 41.12162 47.64423 41.30336 48.308521 41.30336 C 48.922676 41.30336 49.424026 41.115356 49.81884 40.73307 C 50.213654 40.3508 50.414192 39.811844 50.414192 39.122482 L 50.144718 16.285942 C 50.144718 15.421112 50.357792 14.750549 50.796474 14.28054 C 51.228889 13.810524 51.81171 13.572388 52.551201 13.572388 C 54.236996 13.572388 55.114357 14.449745 55.195827 16.210739 L 56.2612 39.699043 C 56.342667 41.942581 56.148392 43.753708 55.69091 45.12616 C 55.233429 46.504875 54.475136 47.632912 53.416031 48.516548 C 52.356926 49.393906 50.984482 50.202339 49.304955 50.941833 C 48.71587 51.198769 48.277187 51.574783 47.982643 52.069862 C 47.688099 52.571213 47.544022 53.147774 47.544022 53.812057 L 48.308521 96.765358 C 48.308521 98.319542 47.85104 99.535324 46.929806 100.400146 C 46.014839 101.264984 44.748928 101.703659 43.144608 101.703659 Z M 73.094048 68.344971 C 73.119118 67.655609 72.974983 67.041458 72.655373 66.489975 C 72.335762 65.944748 71.846939 65.424606 71.182655 64.942047 L 68.888969 63.41293 C 67.942673 62.773708 67.228249 61.971546 66.745697 61.000179 C 66.256882 60.03508 66.018738 58.888241 66.018738 57.559658 L 66.018738 55.68586 C 66.018738 51.863068 66.256882 48.033997 66.745697 44.211189 C 67.228249 40.388397 67.923874 36.697205 68.826302 33.137604 C 69.735001 29.578018 70.812904 26.306709 72.060013 23.304871 C 73.313393 20.309296 74.698372 17.727325 76.227493 15.558983 C 76.866714 14.669083 77.455803 14.017326 77.988487 13.609985 C 78.527443 13.202637 79.147865 13.002098 79.862289 13.002098 C 80.576714 13.002098 81.215935 13.233971 81.773689 13.703987 C 82.337708 14.180267 82.619781 14.900955 82.619781 15.866058 L 82.619781 96.997231 C 82.619781 98.526352 82.143433 99.691994 81.2034 100.494156 C 80.257095 101.296318 78.984924 101.703659 77.3806 101.703659 C 75.795082 101.703659 74.5355 101.258713 73.589195 100.381348 C 72.649162 99.503983 72.204155 98.231812 72.254288 96.577347 L 73.094048 68.344971 Z"/>
</svg>
