<?xml version="1.0" encoding="UTF-8"?>
<!-- Generated by Pixelmator Pro 3.6.9 -->
<svg width="120" height="120" viewBox="0 0 120 120" xmlns="http://www.w3.org/2000/svg">
    <path id="Path-copy-4" fill="#28b54a" stroke="none" d="M 76.83902 83.708496 C 78.548622 82.743393 79.863419 81.640427 80.802818 80.406036 C 81.732826 79.165192 82.192818 77.272598 82.192818 74.72197 L 82.192818 72.998581 L 76.379028 72.998581 L 76.341423 74.797173 C 76.238022 75.643204 75.965416 76.363892 75.524223 76.959251 C 75.073631 77.560867 74.378639 78.124893 73.439232 78.663849 L 46.58519 93.923523 L 46.58519 62.175667 L 76.379028 45.154808 L 76.379028 55.633034 L 82.192818 55.633034 L 82.192818 43.93277 C 82.192818 41.939896 81.817429 40.291702 81.066032 38.975662 C 80.314629 37.665878 79.121422 36.550377 77.48764 35.629143 L 50.445591 20.256493 C 48.125591 18.927917 45.83379 18.263626 43.56073 18.263626 C 41.297066 18.263626 39.014668 18.927917 36.713402 20.256493 L 9.634143 35.629143 C 8.027985 36.550377 6.844496 37.665878 6.093077 38.975662 C 5.34166 40.291702 4.965942 41.939896 4.965942 43.93277 L 4.965942 74.226891 C 4.965942 76.95298 5.416798 78.970917 6.327891 80.268166 C 7.229596 81.571487 8.563371 82.71833 10.319816 83.708496 L 40.423523 100.773224 C 41.49435 101.381111 42.54631 101.688187 43.579529 101.688187 C 44.61269 101.688187 45.664711 101.381111 46.73547 100.773224 L 76.83902 83.708496 Z M 25.58304 46.646324 L 14.067513 40.103699 L 39.240086 25.727463 C 42.09547 24.066765 44.988449 24.066765 47.918972 25.727463 L 55.226536 29.894943 L 25.58304 46.646324 Z M 43.56073 56.823746 L 31.744642 50.130714 L 61.275459 33.335457 L 73.091423 40.103699 L 43.56073 56.823746 Z M 13.729352 78.663849 C 12.630454 78.049683 11.869591 77.385399 11.428152 76.670975 C 10.996088 75.956551 10.780056 75.079178 10.780056 74.032616 L 10.780056 45.154808 L 40.583206 62.175667 L 40.583206 93.923523 L 13.729352 78.663849 Z M 65.934258 64.318939 C 65.934258 65.158707 66.234825 65.879395 66.817139 66.481018 C 67.40892 67.07637 68.104233 67.377182 68.921432 67.377182 L 100.40564 67.377182 L 106.097855 67.151573 L 103.843651 69.288582 L 97.531647 75.179451 C 96.94883 75.718407 96.648643 76.407761 96.648643 77.247528 C 96.648643 78.037155 96.901817 78.701447 97.40004 79.234131 C 97.897629 79.773079 98.536224 80.042557 99.334633 80.042557 C 100.067223 80.042557 100.73465 79.748016 101.316841 79.15892 L 113.48024 66.537415 C 113.865654 66.155136 114.137634 65.791656 114.288048 65.446976 C 114.438454 65.102303 114.513649 64.726288 114.513649 64.318939 C 114.513649 63.936661 114.438454 63.573181 114.288048 63.228504 C 114.137634 62.883823 113.865654 62.507813 113.48024 62.100464 L 101.316841 49.516556 C 100.73465 48.902405 100.067223 48.595329 99.334633 48.595329 C 98.536224 48.595329 97.897629 48.858536 97.40004 49.384949 C 96.901817 49.905106 96.648643 50.563126 96.648643 51.35276 C 96.648643 52.21759 96.94883 52.919479 97.531647 53.458427 L 103.843651 59.386902 L 106.13546 61.523911 L 100.40564 61.298302 L 68.921432 61.298302 C 68.104233 61.298302 67.40892 61.599113 66.817139 62.194469 C 66.234825 62.796089 65.934258 63.504246 65.934258 64.318939 Z"/>
</svg>
