<?xml version="1.0" encoding="UTF-8"?>
<!-- Generated by Pixelmator Pro 3.6.10 -->
<svg width="434" height="434" viewBox="0 0 434 434" xmlns="http://www.w3.org/2000/svg">
    <path id="path1" fill="#28b54a" stroke="none" d="M 67.147499 218.938004 L 67.147499 130.242188 C 67.147499 119.578094 69.779305 111.545898 75.042999 106.145508 C 80.375 100.745117 88.338898 98.044922 98.934601 98.044922 L 146 98.044922 L 146 173.308594 C 146 186.2285 152.460007 192.688507 165.380005 192.688507 L 239.617996 192.688507 L 239.617996 285.794006 C 239.617996 296.458008 236.951996 304.455994 231.619995 309.787994 C 226.356003 315.187988 218.427002 317.889008 207.830994 317.889008 L 124.363998 317.889008 C 127.235001 313.035004 129.423004 307.839996 130.927002 302.302979 C 132.499008 296.765991 133.285004 291.057983 133.285004 285.179016 C 133.285004 276.087006 131.576004 267.541992 128.158005 259.544006 C 124.739998 251.546005 119.988998 244.505005 113.905296 238.421005 C 107.821297 232.337006 100.780296 227.585999 92.782204 224.167999 C 84.784203 220.681992 76.239304 218.938004 67.147499 218.938004 Z M 165.688004 178.640594 C 161.927994 178.640594 160.048004 176.794891 160.048004 173.103485 L 160.048004 99.172852 C 162.167007 99.514648 164.320007 100.4375 166.507996 101.941406 C 168.695007 103.376953 170.985001 105.325195 173.378006 107.786133 L 229.876999 165.310486 C 232.337997 167.839783 234.285995 170.164093 235.722 172.283203 C 237.156998 174.402283 238.046005 176.521484 238.388 178.640594 L 165.688004 178.640594 Z M 67.147499 337.268982 C 60.038101 337.268982 53.338902 335.901001 47.049801 333.166992 C 40.7607 330.501007 35.223602 326.774994 30.438501 321.98999 C 25.653301 317.205017 21.893551 311.667999 19.15918 305.378998 C 16.424801 299.089996 15.057617 292.356018 15.057617 285.179016 C 15.057617 278.001007 16.424801 271.302002 19.15918 265.080994 C 21.893551 258.791992 25.653301 253.255005 30.438501 248.470001 C 35.223602 243.615997 40.7607 239.856003 47.049801 237.190002 C 53.338902 234.455994 60.038101 233.089005 67.147499 233.089005 C 74.325203 233.089005 81.058601 234.455994 87.347702 237.190002 C 93.636703 239.856003 99.173798 243.582001 103.959 248.367004 C 108.744102 253.151993 112.469704 258.688995 115.136002 264.979004 C 117.870003 271.268005 119.237 278.001007 119.237 285.179016 C 119.237 292.287994 117.870003 298.987 115.136002 305.276001 C 112.401398 311.565002 108.607399 317.102997 103.753899 321.888 C 98.968803 326.673004 93.431602 330.432983 87.142601 333.166992 C 80.8535 335.901001 74.188499 337.268982 67.147499 337.268982 Z M 38.641602 293.177002 C 40.897499 293.177002 42.811501 292.390991 44.383801 290.817993 C 45.9561 289.246002 46.742203 287.365997 46.742203 285.179016 C 46.742203 282.990997 45.9561 281.110992 44.383801 279.539001 C 42.811501 277.96698 40.897499 277.181 38.641602 277.181 C 36.522499 277.181 34.6768 277.96698 33.1045 279.539001 C 31.5322 281.110992 30.746101 282.990997 30.746101 285.179016 C 30.746101 287.365997 31.5322 289.246002 33.1045 290.817993 C 34.6768 292.390991 36.522499 293.177002 38.641602 293.177002 Z M 67.25 293.177002 C 69.4375 293.177002 71.317406 292.390991 72.889603 290.817993 C 74.530304 289.246002 75.350601 287.365997 75.350601 285.179016 C 75.350601 282.990997 74.530304 281.110992 72.889603 279.539001 C 71.317406 277.96698 69.4375 277.181 67.25 277.181 C 65.130905 277.181 63.250999 277.96698 61.610401 279.539001 C 60.038101 281.110992 59.251999 282.990997 59.251999 285.179016 C 59.251999 287.365997 60.038101 289.246002 61.610401 290.817993 C 63.250999 292.390991 65.130905 293.177002 67.25 293.177002 Z M 95.755898 293.177002 C 97.875 293.177002 99.720703 292.390991 101.292999 290.817993 C 102.865196 289.246002 103.651398 287.365997 103.651398 285.179016 C 103.719704 282.990997 102.967796 281.110992 101.3955 279.539001 C 99.823196 277.96698 97.943398 277.181 95.755898 277.181 C 93.5 277.181 91.585899 277.96698 90.013702 279.539001 C 88.509804 281.110992 87.757797 282.990997 87.757797 285.179016 C 87.757797 287.365997 88.509804 289.246002 90.013702 290.817993 C 91.585899 292.390991 93.5 293.177002 95.755898 293.177002 Z"/>
</svg>
