<?xml version="1.0" encoding="UTF-8"?>
<!-- Generated by Pixelmator Pro 3.6.10 -->
<svg width="434" height="434" viewBox="0 0 434 434" xmlns="http://www.w3.org/2000/svg">
    <path id="path1" fill="#28b54a" stroke="none" d="M 36.9883 309.559998 C 28.9219 309.559998 23.248051 308.397003 19.966801 306.072998 C 16.75391 303.817017 15.147461 300.434021 15.147461 295.921997 C 15.147461 289.359009 17.129881 282.421021 21.09473 275.106018 C 25.059601 267.791992 30.8018 260.955994 38.321301 254.598999 C 45.840801 248.172989 54.898399 242.977997 65.494102 239.013 C 76.158203 234.978989 88.121101 232.962997 101.382797 232.962997 C 114.712898 232.962997 126.676003 234.978989 137.271011 239.013 C 147.936005 242.977997 156.992996 248.172989 164.444 254.598999 C 171.964005 260.955994 177.705994 267.791992 181.671005 275.106018 C 185.703995 282.421021 187.720993 289.359009 187.720993 295.921997 C 187.720993 300.434021 186.080002 303.817017 182.798996 306.072998 C 179.585999 308.397003 173.912003 309.559998 165.776993 309.559998 L 36.9883 309.559998 Z M 101.485397 214.608398 C 94.170898 214.608398 87.403297 212.625992 81.182602 208.661102 C 74.961899 204.627899 69.9375 199.227493 66.109406 192.459991 C 62.349602 185.623993 60.4697 177.967804 60.4697 169.49118 C 60.4697 161.151398 62.349602 153.631805 66.109406 146.932587 C 69.9375 140.233398 74.961899 134.935547 81.182602 131.039063 C 87.403297 127.142578 94.170898 125.194336 101.485397 125.194336 C 108.799797 125.194336 115.567001 127.108398 121.788002 130.936523 C 128.009003 134.764648 132.999008 140.02829 136.759003 146.727509 C 140.587006 153.358398 142.501007 160.877899 142.501007 169.286102 C 142.501007 177.831085 140.587006 185.5215 136.759003 192.357391 C 132.999008 199.19339 128.009003 204.627899 121.788002 208.661102 C 115.567001 212.625992 108.799797 214.608398 101.485397 214.608398 Z M 216.533997 232.962997 C 229.796005 232.962997 241.725006 234.978989 252.320007 239.013 C 262.984009 242.977997 272.075989 248.172989 279.596008 254.598999 C 287.11499 260.955994 292.856995 267.791992 296.821991 275.106018 C 300.786987 282.421021 302.769989 289.359009 302.769989 295.921997 C 302.769989 300.434021 301.128998 303.817017 297.847992 306.072998 C 294.63501 308.397003 288.994995 309.559998 280.928986 309.559998 L 197.154007 309.559998 C 199.479004 305.799988 200.641006 301.253998 200.641006 295.921997 C 200.641006 285.940979 197.940002 276.438995 192.539993 267.416016 C 187.207993 258.324005 180.063995 250.291992 171.108994 243.319 C 177.397995 240.175003 184.337006 237.679993 191.925003 235.834 C 199.580994 233.919998 207.783997 232.962997 216.533997 232.962997 Z M 216.533997 214.608398 C 209.220001 214.608398 202.451996 212.625992 196.231003 208.661102 C 190.011002 204.627899 185.020996 199.227493 181.261002 192.459991 C 177.501007 185.623993 175.621002 177.967804 175.621002 169.49118 C 175.552994 161.151398 177.397995 153.631805 181.158005 146.932587 C 184.985992 140.233398 190.011002 134.935547 196.231003 131.039063 C 202.520996 127.142578 209.287994 125.194336 216.533997 125.194336 C 223.848999 125.194336 230.615997 127.108398 236.837006 130.936523 C 243.057999 134.764648 248.048004 140.02829 251.807999 146.727509 C 255.636002 153.358398 257.550018 160.877899 257.550018 169.286102 C 257.550018 177.831085 255.669998 185.5215 251.910004 192.357391 C 248.149994 199.19339 243.160004 204.627899 236.938995 208.661102 C 230.718994 212.625992 223.917007 214.608398 216.533997 214.608398 Z M 331.480011 232.962997 C 344.811005 232.962997 356.77301 234.978989 367.368988 239.013 C 378.03299 242.977997 387.091003 248.172989 394.541992 254.598999 C 402.062012 260.955994 407.803986 267.791992 411.769012 275.106018 C 415.802002 282.421021 417.817993 289.359009 417.817993 295.921997 C 417.817993 300.434021 416.178009 303.817017 412.895996 306.072998 C 409.68399 308.397003 404.01001 309.559998 395.875 309.559998 L 312.306 309.559998 C 314.630005 305.799988 315.791992 301.253998 315.791992 295.921997 C 315.791992 285.940979 313.09201 276.404999 307.69101 267.312988 C 302.359009 258.221985 295.182007 250.188995 286.15799 243.216995 C 292.446991 240.140991 299.385986 237.679993 306.973999 235.834 C 314.630005 233.919998 322.799011 232.962997 331.480011 232.962997 Z M 331.583008 214.608398 C 324.269012 214.608398 317.501007 212.625992 311.279999 208.661102 C 305.059998 204.627899 300.035004 199.227493 296.207001 192.459991 C 292.446991 185.623993 290.566986 177.967804 290.566986 169.49118 C 290.566986 161.151398 292.446991 153.631805 296.207001 146.932587 C 300.035004 140.233398 305.059998 134.935547 311.279999 131.039063 C 317.501007 127.142578 324.269012 125.194336 331.583008 125.194336 C 338.897003 125.194336 345.665009 127.108398 351.885986 130.936523 C 358.105988 134.764648 363.096985 140.02829 366.855988 146.727509 C 370.684998 153.358398 372.598999 160.877899 372.598999 169.286102 C 372.598999 177.831085 370.684998 185.5215 366.855988 192.357391 C 363.096985 199.19339 358.105988 204.627899 351.885986 208.661102 C 345.665009 212.625992 338.897003 214.608398 331.583008 214.608398 Z"/>
</svg>
