<?xml version="1.0" encoding="UTF-8"?>
<!-- Generated by Pixelmator Pro 3.6.10 -->
<svg width="434" height="434" viewBox="0 0 434 434" xmlns="http://www.w3.org/2000/svg">
    <path id="path1" fill="#28b54a" stroke="none" d="M 47.3447 311.507996 C 36.680702 311.507996 28.648401 308.84198 23.248051 303.51001 C 17.84766 298.246002 15.147461 290.315979 15.147461 279.721008 L 15.147461 154.520508 C 15.147461 143.924805 17.84766 135.995087 23.248051 130.731445 C 28.648401 125.399414 36.680702 122.733398 47.3447 122.733398 L 187.412994 122.733398 C 198.145996 122.733398 206.177994 125.399414 211.509995 130.731445 C 216.910004 135.995087 219.610001 143.924805 219.610001 154.520508 L 219.610001 166.415009 C 216.056 165.458008 212.535004 164.979492 209.048996 164.979492 C 205.768005 164.979492 202.554993 165.423798 199.410004 166.3125 C 196.334 167.132782 193.395004 168.363281 190.591995 170.003906 C 189.908005 169.867188 189.190002 169.764587 188.438004 169.696289 C 187.755005 169.627899 187.003006 169.593781 186.182999 169.593781 L 45.909203 169.593781 C 41.329102 169.593781 37.808601 170.824188 35.347702 173.285187 C 32.8867 175.677704 31.6562 179.232391 31.6562 183.949203 L 31.6562 280.643982 C 31.6562 285.359985 32.8867 288.914978 35.347702 291.307983 C 37.808601 293.768982 41.329102 294.998993 45.909203 294.998993 L 133.990005 294.998993 C 133.443008 297.664978 133.20401 300.36499 133.272003 303.100006 C 133.341003 305.901978 133.956009 308.705017 135.117996 311.507996 L 47.3447 311.507996 Z M 97.281197 206.405289 C 95.503899 206.405289 94.273399 206.097702 93.589798 205.482391 C 92.906197 204.798798 92.564499 203.56839 92.564499 201.791 L 92.564499 195.741196 C 92.564499 193.963898 92.906197 192.733398 93.589798 192.049789 C 94.273399 191.366196 95.503899 191.024399 97.281197 191.024399 L 103.3311 191.024399 C 105.176804 191.024399 106.441399 191.366196 107.125 192.049789 C 107.808601 192.733398 108.150398 193.963898 108.150398 195.741196 L 108.150398 201.791 C 108.150398 203.56839 107.808601 204.798798 107.125 205.482391 C 106.441399 206.097702 105.176804 206.405289 103.3311 206.405289 L 97.281197 206.405289 Z M 131.427002 206.405289 C 129.581009 206.405289 128.31601 206.097702 127.633003 205.482391 C 126.948997 204.798798 126.607002 203.56839 126.607002 201.791 L 126.607002 195.741196 C 126.607002 193.963898 126.948997 192.733398 127.633003 192.049789 C 128.31601 191.366196 129.581009 191.024399 131.427002 191.024399 L 137.374008 191.024399 C 139.220001 191.024399 140.484009 191.366196 141.167999 192.049789 C 141.852005 192.733398 142.193008 193.963898 142.193008 195.741196 L 142.193008 201.791 C 142.193008 203.56839 141.852005 204.798798 141.167999 205.482391 C 140.484009 206.097702 139.220001 206.405289 137.374008 206.405289 L 131.427002 206.405289 Z M 63.2383 239.935989 C 61.460899 239.935989 60.196301 239.627991 59.444302 239.013 C 58.7607 238.328995 58.4189 237.098999 58.4189 235.320999 L 58.4189 229.270996 C 58.4189 227.494003 58.7607 226.297989 59.444302 225.682999 C 60.196301 224.998993 61.460899 224.656998 63.2383 224.656998 L 69.288101 224.656998 C 71.065399 224.656998 72.295898 224.998993 72.9795 225.682999 C 73.7314 226.297989 74.107399 227.494003 74.107399 229.270996 L 74.107399 235.320999 C 74.107399 237.098999 73.7314 238.328995 72.9795 239.013 C 72.295898 239.627991 71.065399 239.935989 69.288101 239.935989 L 63.2383 239.935989 Z M 97.281197 239.935989 C 95.503899 239.935989 94.273399 239.627991 93.589798 239.013 C 92.906197 238.328995 92.564499 237.098999 92.564499 235.320999 L 92.564499 229.270996 C 92.564499 227.494003 92.906197 226.297989 93.589798 225.682999 C 94.273399 224.998993 95.503899 224.656998 97.281197 224.656998 L 103.3311 224.656998 C 105.176804 224.656998 106.441399 224.998993 107.125 225.682999 C 107.808601 226.297989 108.150398 227.494003 108.150398 229.270996 L 108.150398 235.320999 C 108.150398 237.098999 107.808601 238.328995 107.125 239.013 C 106.441399 239.627991 105.176804 239.935989 103.3311 239.935989 L 97.281197 239.935989 Z M 131.427002 239.935989 C 129.581009 239.935989 128.31601 239.627991 127.633003 239.013 C 126.948997 238.328995 126.607002 237.098999 126.607002 235.320999 L 126.607002 229.270996 C 126.607002 227.494003 126.948997 226.297989 127.633003 225.682999 C 128.31601 224.998993 129.581009 224.656998 131.427002 224.656998 L 137.374008 224.656998 C 139.220001 224.656998 140.484009 224.998993 141.167999 225.682999 C 141.852005 226.297989 142.193008 227.494003 142.193008 229.270996 L 142.193008 235.320999 C 142.193008 237.098999 141.852005 238.328995 141.167999 239.013 C 140.484009 239.627991 139.220001 239.935989 137.374008 239.935989 L 131.427002 239.935989 Z M 63.2383 273.567993 C 61.460899 273.567993 60.196301 273.22699 59.444302 272.542999 C 58.7607 271.859009 58.4189 270.628998 58.4189 268.85199 L 58.4189 262.802002 C 58.4189 261.023987 58.7607 259.828003 59.444302 259.213013 C 60.196301 258.528992 61.460899 258.187988 63.2383 258.187988 L 69.288101 258.187988 C 71.065399 258.187988 72.295898 258.528992 72.9795 259.213013 C 73.7314 259.828003 74.107399 261.023987 74.107399 262.802002 L 74.107399 268.85199 C 74.107399 270.628998 73.7314 271.859009 72.9795 272.542999 C 72.295898 273.22699 71.065399 273.567993 69.288101 273.567993 L 63.2383 273.567993 Z M 97.281197 273.567993 C 95.503899 273.567993 94.273399 273.22699 93.589798 272.542999 C 92.906197 271.859009 92.564499 270.628998 92.564499 268.85199 L 92.564499 262.802002 C 92.564499 261.023987 92.906197 259.828003 93.589798 259.213013 C 94.273399 258.528992 95.503899 258.187988 97.281197 258.187988 L 103.3311 258.187988 C 105.176804 258.187988 106.441399 258.528992 107.125 259.213013 C 107.808601 259.828003 108.150398 261.023987 108.150398 262.802002 L 108.150398 268.85199 C 108.150398 270.628998 107.808601 271.859009 107.125 272.542999 C 106.441399 273.22699 105.176804 273.567993 103.3311 273.567993 L 97.281197 273.567993 Z M 131.427002 273.567993 C 129.581009 273.567993 128.31601 273.22699 127.633003 272.542999 C 126.948997 271.859009 126.607002 270.628998 126.607002 268.85199 L 126.607002 262.802002 C 126.607002 261.023987 126.948997 259.828003 127.633003 259.213013 C 128.31601 258.528992 129.581009 258.187988 131.427002 258.187988 L 137.374008 258.187988 C 139.220001 258.187988 140.484009 258.528992 141.167999 259.213013 C 141.852005 259.828003 142.193008 261.023987 142.193008 262.802002 L 142.193008 268.85199 C 142.193008 270.628998 141.852005 271.859009 141.167999 272.542999 C 140.484009 273.22699 139.220001 273.567993 137.374008 273.567993 L 131.427002 273.567993 Z M 165.470001 206.405289 C 163.692001 206.405289 162.427994 206.097702 161.675995 205.482391 C 160.992004 204.798798 160.649994 203.56839 160.649994 201.791 L 160.649994 195.741196 C 160.649994 193.963898 160.992004 192.733398 161.675995 192.049789 C 162.427994 191.366196 163.692001 191.024399 165.470001 191.024399 L 169.878998 191.024399 C 167.623001 195.741196 166.255997 200.868195 165.776993 206.405289 L 165.470001 206.405289 Z M 165.470001 239.935989 C 163.692001 239.935989 162.427994 239.627991 161.675995 239.013 C 160.992004 238.328995 160.649994 237.098999 160.649994 235.320999 L 160.649994 229.270996 C 160.649994 227.494003 160.992004 226.297989 161.675995 225.682999 C 162.427994 224.998993 163.692001 224.656998 165.470001 224.656998 L 167.828003 224.656998 C 168.442993 227.322998 169.298004 229.886993 170.391998 232.347992 C 171.554001 234.73999 172.852997 236.996002 174.287994 239.11499 C 174.014999 239.457001 173.639008 239.695999 173.160004 239.832993 C 172.75 239.901001 172.203003 239.935989 171.520004 239.935989 L 165.470001 239.935989 Z M 159.522003 311.404999 C 155.626007 311.404999 152.550003 310.550995 150.294006 308.84198 C 148.106003 307.132996 147.013 304.73999 147.013 301.664001 C 147.013 296.878998 148.414001 291.889008 151.216995 286.692993 C 154.087997 281.429993 158.223999 276.507996 163.623993 271.927979 C 169.024002 267.278992 175.552994 263.52002 183.209 260.64801 C 190.865005 257.776978 199.479004 256.34198 209.048996 256.34198 C 218.619003 256.34198 227.197998 257.776978 234.785995 260.64801 C 242.442001 263.52002 248.936996 267.278992 254.268997 271.927979 C 259.669006 276.507996 263.804993 281.429993 266.675995 286.692993 C 269.546997 291.889008 270.981995 296.878998 270.981995 301.664001 C 270.981995 304.73999 269.854004 307.132996 267.598999 308.84198 C 265.411011 310.550995 262.369019 311.404999 258.473022 311.404999 L 159.522003 311.404999 Z M 209.048996 243.216995 C 203.785004 243.216995 198.897003 241.780991 194.386002 238.910004 C 189.942001 236.039001 186.354004 232.177002 183.619003 227.322998 C 180.884995 222.401001 179.518005 216.898392 179.518005 210.814499 C 179.518005 204.798798 180.884995 199.398392 183.619003 194.613297 C 186.354004 189.759796 189.942001 185.965805 194.386002 183.2314 C 198.897003 180.428696 203.785004 179.027298 209.048996 179.027298 C 214.244003 179.027298 219.063004 180.394501 223.507004 183.128906 C 228.018997 185.863297 231.641998 189.623001 234.376007 194.408203 C 237.110001 199.19339 238.477997 204.593796 238.477997 210.60939 C 238.477997 216.761703 237.110001 222.298996 234.376007 227.220993 C 231.710007 232.14299 228.121002 236.039001 223.608994 238.910004 C 219.166 241.780991 214.311996 243.216995 209.048996 243.216995 Z"/>
</svg>
