<?xml version="1.0" encoding="UTF-8"?>
<!-- Generated by Pixelmator Pro 3.6.15 -->
<svg width="120" height="120" viewBox="0 0 120 120" xmlns="http://www.w3.org/2000/svg">
    <path id="promo" fill="#28b54a" stroke="none" d="M 11 59.328728 L 11 52.907806 C 11 47.171112 12.553512 42.803162 15.660527 39.803764 C 18.767551 36.775375 23.297413 35.261131 29.250074 35.261131 L 44.625523 35.261131 C 48.051907 34.882545 51.652607 34.285614 55.427525 33.470245 C 59.231445 32.625771 63.078922 31.562859 66.969948 30.281601 C 70.860985 28.971153 74.664909 27.47155 78.381721 25.782516 C 82.127533 24.093575 85.641121 22.200798 88.922295 20.104164 L 88.922295 27.835495 C 85.641121 29.873917 82.214638 31.693901 78.643044 33.295448 C 75.07135 34.897087 71.383644 36.294846 67.57972 37.4888 C 63.775799 38.682663 59.870216 39.68737 55.863068 40.502647 C 51.855827 41.288918 47.80513 41.885841 43.710777 42.293533 L 29.250074 42.293533 C 25.271933 42.293533 22.397215 43.123451 20.625919 44.783295 C 18.883703 46.44313 18.012577 49.151337 18.012577 52.907806 L 18.012577 59.328728 C 18.012577 63.085197 18.883703 65.793396 20.625919 67.453239 C 22.397215 69.113083 25.271933 69.942902 29.250074 69.942902 L 44.102867 69.942902 C 48.139015 70.350586 52.117157 70.947617 56.037289 71.733795 C 59.957325 72.520065 63.790348 73.510132 67.536163 74.704086 C 71.310989 75.897949 74.984245 77.295692 78.555939 78.897339 C 82.127533 80.498978 85.583015 82.31897 88.922295 84.3573 L 88.922295 92.132324 C 85.495903 90.035698 81.953316 88.14296 78.294601 86.453918 C 74.664909 84.764984 70.94809 83.294479 67.144173 82.042328 C 63.369251 80.790176 59.565331 79.741806 55.732407 78.897339 C 51.928486 78.052872 48.139015 77.412193 44.364197 76.975403 L 29.250074 76.975403 C 23.297413 76.975403 18.767551 75.461159 15.660527 72.432663 C 12.553512 69.404266 11 65.036224 11 59.328728 Z M 51.507393 76.407578 L 54.904766 93.966949 C 55.485531 96.878952 55.195198 99.295868 54.033669 101.217804 C 52.901241 103.139725 51.275066 104.435532 49.155331 105.105309 C 47.761574 105.542091 46.20805 105.70224 44.494862 105.585747 C 42.781574 105.469254 41.097481 104.828667 39.442303 103.663818 C 37.787121 102.499054 36.364361 100.591675 35.173733 97.941765 L 25.112263 75.577652 L 32.255459 75.577652 L 42.099247 96.675064 C 42.592899 97.723419 43.260773 98.393105 44.102867 98.684387 C 44.973965 98.975571 45.772503 98.990128 46.498386 98.728035 C 47.195358 98.46595 47.747025 98.01461 48.153568 97.37394 C 48.589115 96.762451 48.719784 95.976181 48.545563 95.015221 L 44.886852 76.407578 L 51.507393 76.407578 Z M 38.484097 38.580811 L 45.540176 38.580811 L 45.540176 73.655724 L 38.484097 73.655724 L 38.484097 38.580811 Z M 86.439568 87.764374 L 86.439568 24.16642 C 86.439568 22.011513 86.889664 20.133286 87.789864 18.531677 C 88.690063 16.900963 89.953156 15.634254 91.579231 14.731537 C 93.205414 13.828812 95.07827 13.377449 97.197998 13.377449 C 99.375839 13.377449 101.263252 13.828812 102.860329 14.731537 C 104.486412 15.634254 105.749596 16.900963 106.649612 18.531677 C 107.550186 20.133286 108 22.011513 108 24.16642 L 108 87.764374 C 108 89.919197 107.550186 91.797485 106.649612 93.399025 C 105.749596 95.02977 104.486412 96.296471 102.860329 97.199242 C 101.263252 98.101906 99.375839 98.553337 97.197998 98.553337 C 95.07827 98.553337 93.205414 98.101906 91.579231 97.199242 C 89.953156 96.296471 88.690063 95.02977 87.789864 93.399025 C 86.889664 91.797485 86.439568 89.919197 86.439568 87.764374 Z M 93.495743 87.764374 C 93.495743 88.900032 93.829628 89.817345 94.497505 90.51622 C 95.165375 91.185997 96.065575 91.520844 97.197998 91.520844 C 98.330528 91.520844 99.245178 91.185997 99.942062 90.51622 C 100.638931 89.817345 100.987473 88.900032 100.987473 87.764374 L 100.987473 24.16642 C 100.987473 23.030762 100.638931 22.127991 99.942062 21.458237 C 99.245178 20.759361 98.330528 20.409927 97.197998 20.409927 C 96.065575 20.409927 95.165375 20.759361 94.497505 21.458237 C 93.829628 22.127991 93.495743 23.030762 93.495743 24.16642 L 93.495743 87.764374 Z"/>
</svg>
