<svg width="120" height="120" viewBox="0 0 120 120" fill="none" xmlns="http://www.w3.org/2000/svg">
<path d="M42.4776 67.7319L16.1997 41.5281C13.3999 38.732 12 35.8826 12 32.9799C12 30.0507 13.3599 27.2146 16.0797 24.4717L21.3993 19.159C24.1457 16.4162 26.9855 15.058 29.9186 15.0847C32.8517 15.0847 35.7181 16.4827 38.5179 19.2789L66.8756 47.7995L62.876 51.3545L34.3182 22.8739C32.8517 21.4359 31.3585 20.7169 29.8386 20.7169C28.3187 20.6903 26.8522 21.3959 25.4389 22.834L19.7994 28.5061C18.3595 29.9708 17.6396 31.4487 17.6396 32.94C17.6396 34.4313 18.3595 35.9092 19.7994 37.3739L46.3173 63.9771L42.4776 67.7319ZM39.8778 49.9565L24.919 35.097C24.6257 34.8307 24.479 34.4845 24.479 34.0584C24.5057 33.6324 24.6523 33.2595 24.919 32.94C25.2123 32.6737 25.5723 32.5539 25.9989 32.5805C26.4255 32.5805 26.7722 32.7003 27.0388 32.94L41.9976 47.8793C42.2909 48.1723 42.4376 48.5185 42.4376 48.9179C42.4376 49.3174 42.2909 49.6635 41.9976 49.9565C41.7043 50.2494 41.3443 50.3959 40.9177 50.3959C40.5177 50.3959 40.1711 50.2494 39.8778 49.9565ZM44.7974 45.0832L29.9186 30.1039C29.6519 29.811 29.5053 29.4781 29.4786 29.1053C29.4786 28.7058 29.6253 28.3463 29.9186 28.0268C30.1852 27.7605 30.5185 27.6273 30.9185 27.6273C31.3451 27.6007 31.7051 27.7339 31.9984 28.0268L46.9572 42.9262C47.2239 43.1925 47.3572 43.5387 47.3572 43.9648C47.3572 44.3642 47.2105 44.737 46.9172 45.0832C46.6506 45.3495 46.3039 45.496 45.8773 45.5226C45.4507 45.5226 45.0907 45.3761 44.7974 45.0832ZM96.2733 106.359C95.82 106.785 95.3001 106.998 94.7134 106.998C94.1268 107.024 93.5135 106.825 92.8736 106.398L80.3546 97.9302C79.7413 97.5307 79.2213 97.0248 78.7947 96.4123C78.3681 95.7998 78.1148 95.134 78.0348 94.415L77.4748 90.82L58.7163 72.1258L62.476 67.8917L83.0744 88.5032L83.8743 92.977L93.9935 100.606L97.6332 96.9715L89.9938 86.8255L85.5142 86.0666L64.7158 65.3752L68.4355 61.1011L87.834 80.4743L91.4337 81.0335C92.9002 81.2466 94.0868 82.0188 94.9934 83.3503L103.353 95.8131C103.779 96.4256 104.006 97.0248 104.033 97.6106C104.059 98.2231 103.859 98.7557 103.433 99.2084L96.2733 106.359ZM18.2395 101.645C15.9464 99.3282 14.3998 96.8117 13.5999 94.0955C12.8266 91.3792 12.8133 88.6763 13.5599 85.9867C14.3331 83.2971 15.8664 80.8072 18.1595 78.517C19.6261 77.0524 21.1593 75.8141 22.7591 74.8021C24.3857 73.7636 26.1455 72.7383 28.0387 71.7264C29.9586 70.6878 32.1051 69.4895 34.4782 68.1314C36.8514 66.7466 39.5178 65.0157 42.4776 62.9385C45.464 60.8348 48.8237 58.1851 52.5568 54.9895C56.3165 51.7939 60.5428 47.8527 65.2358 43.1659L68.7155 46.6411C63.5692 51.7806 59.0629 56.0281 55.1966 59.3835C51.3569 62.7122 47.9971 65.4151 45.1174 67.4922C42.2376 69.5427 39.7178 71.1938 37.558 72.4454C35.4248 73.697 33.4916 74.7888 31.7584 75.7209C30.0519 76.6263 28.4254 77.5983 26.8788 78.6368C25.3589 79.6488 23.7591 80.9803 22.0792 82.6313C19.866 84.8416 18.7595 87.3182 18.7595 90.0611C18.7595 92.8039 19.906 95.3471 22.1992 97.6905C24.519 99.9807 27.0521 101.112 29.7986 101.086C32.5717 101.086 35.0648 99.9674 37.278 97.7305C38.9312 96.0794 40.2644 94.4816 41.2777 92.9371C42.3176 91.4192 43.2909 89.8081 44.1974 88.1038C45.1307 86.3994 46.224 84.4688 47.4772 82.3118C48.7304 80.1547 50.3836 77.6515 52.4368 74.8021C54.5166 71.9261 57.2231 68.5574 60.5561 64.6961C63.9159 60.8348 68.1689 56.3343 73.3151 51.1948L76.7949 54.7099C72.1019 59.3968 68.1555 63.6176 64.9558 67.3724C61.7561 71.1006 59.1029 74.456 56.9964 77.4385C54.8899 80.3944 53.1434 83.0574 51.7568 85.4275C50.397 87.7975 49.2104 89.9279 48.1971 91.8186C47.1839 93.736 46.1573 95.4936 45.1174 97.0913C44.0775 98.7158 42.8242 100.26 41.3577 101.725C39.0912 104.015 36.598 105.533 33.8783 106.279C31.1851 107.051 28.4787 107.038 25.7589 106.239C23.0658 105.466 20.5593 103.935 18.2395 101.645ZM29.6386 95.2938C28.2787 95.2938 27.1188 94.8012 26.1589 93.8159C25.199 92.8572 24.719 91.6988 24.719 90.3407C24.719 88.9825 25.199 87.8241 26.1589 86.8655C27.1188 85.9068 28.2787 85.4275 29.6386 85.4275C30.9985 85.4275 32.1584 85.9068 33.1183 86.8655C34.1049 87.8241 34.5982 88.9825 34.5982 90.3407C34.5982 91.6988 34.1049 92.8572 33.1183 93.8159C32.1584 94.8012 30.9985 95.2938 29.6386 95.2938ZM67.9956 51.9138C65.7024 49.6236 63.9692 47.0671 62.796 44.2444C61.6227 41.395 61.0094 38.4923 60.9561 35.5364C60.9028 32.5539 61.4094 29.6645 62.476 26.8684C63.5692 24.0722 65.2224 21.5824 67.4356 19.3987C69.8354 16.9754 72.5952 15.2444 75.7149 14.2059C78.8614 13.1407 82.1144 12.7812 85.4742 13.1274C88.8339 13.4469 92.0336 14.4988 95.0734 16.283L91.1537 20.1976C87.8206 18.4933 84.3009 17.9074 80.5946 18.44C76.9149 18.946 73.7684 20.5038 71.1553 23.1136C68.8888 25.3505 67.3956 27.9735 66.6757 30.9827C65.9824 33.9919 66.0624 37.0277 66.9156 40.0901C67.7689 43.1259 69.3821 45.8288 71.7553 48.1989C74.1284 50.5423 76.8349 52.1401 79.8746 52.9923C82.941 53.8444 85.9675 53.9243 88.9539 53.232C91.967 52.5396 94.6068 51.0749 96.8733 48.838C98.6065 47.1071 99.873 45.1232 100.673 42.8862C101.5 40.6227 101.846 38.2793 101.713 35.856C101.58 33.406 100.953 31.036 99.833 28.7458L103.713 24.8312C105.499 27.8936 106.552 31.1158 106.872 34.4978C107.219 37.8532 106.859 41.102 105.793 44.2444C104.753 47.3867 103.033 50.1562 100.633 52.5529C98.4198 54.7632 95.9133 56.4009 93.1136 57.4661C90.3138 58.5313 87.4207 59.0373 84.4342 58.984C81.4478 58.9041 78.5281 58.2783 75.6749 57.1066C72.8485 55.9349 70.2887 54.2039 67.9956 51.9138ZM80.1146 33.9786C78.5947 32.4607 77.8081 30.8362 77.7548 29.1053C77.7015 27.3743 78.4214 25.7766 79.9146 24.3119L88.2339 15.9635L91.8737 19.4786L84.1543 27.1081C83.0077 28.2531 83.0744 29.4781 84.3543 30.783L89.2339 35.6962C90.4338 36.9212 91.6337 36.9212 92.8336 35.6962L100.473 28.1466L103.993 31.6218L95.5934 40.0502C94.1801 41.4615 92.6069 42.1539 90.8737 42.1273C89.1405 42.1007 87.5273 41.3417 86.0341 39.8504L80.1146 33.9786Z" fill="#28B54A"/>
</svg>
