<?xml version="1.0" encoding="UTF-8"?>
<!-- Generated by Pixelmator Pro 3.6.10 -->
<svg width="434" height="434" viewBox="0 0 434 434" xmlns="http://www.w3.org/2000/svg">
    <path id="path1" fill="#28b54a" stroke="none" d="M 158.944 321.557007 C 151.766998 321.557007 144.725998 320.804993 137.820999 319.300995 C 130.917007 317.796997 124.32 315.677979 118.030998 312.942993 C 122.953003 307.132996 126.780998 300.604004 129.516006 293.358002 C 132.318008 286.112 133.720001 278.48999 133.720001 270.492004 C 133.720001 265.09198 133.104004 259.931 131.874008 255.009003 C 135.906998 254.052002 140.180008 253.300003 144.690994 252.753006 C 149.203003 252.138 153.919998 251.830002 158.841995 251.830002 C 169.164001 251.830002 178.598007 252.957993 187.143005 255.214005 C 195.688004 257.470001 203.070007 260.408997 209.291 264.031982 C 215.511993 267.587006 220.296997 271.346985 223.645996 275.312012 C 230.688004 267.654999 236.190002 258.837006 240.154999 248.856003 C 244.119995 238.876007 246.102997 228.246002 246.102997 216.96701 C 246.102997 204.867203 243.847 193.553711 239.335007 183.026398 C 234.822998 172.498993 228.567993 163.236298 220.570007 155.238312 C 212.572006 147.240204 203.309998 141.019501 192.781998 136.576202 C 182.255005 132.064514 170.940994 129.808594 158.841995 129.808594 C 147.768005 129.808594 137.343002 131.722717 127.567001 135.550812 C 117.792 139.310516 109.042 144.574219 101.317398 151.341797 C 93.592796 158.109406 87.269501 166.073212 82.347702 175.233398 C 77.425804 184.325195 74.247101 194.1689 72.811501 204.764603 C 70.077103 204.422897 67.035202 204.354507 63.685501 204.559601 C 60.404301 204.696304 57.533199 205.003906 55.0723 205.482407 C 56.507801 192.49411 60.165001 180.360397 66.0439 169.081116 C 71.991203 157.801819 79.647499 147.923798 89.012703 139.447296 C 98.446297 130.970703 109.110397 124.339813 121.004997 119.554688 C 132.899002 114.769531 145.511993 112.376953 158.841995 112.376953 C 173.128998 112.376953 186.561996 115.111328 199.139999 120.580078 C 211.785995 126.048798 222.929001 133.602509 232.567001 143.241211 C 242.205994 152.879913 249.759995 164.022491 255.229004 176.668915 C 260.766022 189.247101 263.533997 202.679703 263.533997 216.96701 C 263.533997 231.253998 260.800018 244.720993 255.330994 257.367004 C 249.862 269.945007 242.309006 281.054016 232.669998 290.692017 C 223.031006 300.330994 211.889008 307.88501 199.242004 313.354004 C 186.664001 318.822021 173.231003 321.557007 158.944 321.557007 Z M 158.841995 234.39801 C 152.279007 234.330002 146.332001 232.621002 141 229.271011 C 135.736008 225.854004 131.531998 221.238998 128.388 215.429001 C 125.242996 209.61821 123.670998 203.05571 123.670998 195.741211 C 123.602997 188.836899 125.140999 182.513702 128.285004 176.771515 C 131.430008 171.029297 135.667999 166.449219 141 163.031219 C 146.332001 159.613312 152.279007 157.904297 158.841995 157.904297 C 165.404007 157.904297 171.317001 159.613312 176.580994 163.031219 C 181.912994 166.449219 186.151001 171.029297 189.296005 176.771515 C 192.440002 182.513702 194.013 188.836899 194.013 195.741211 C 194.013 203.124008 192.440002 209.754898 189.296005 215.634003 C 186.151001 221.444 181.912994 226.059006 176.580994 229.477005 C 171.317001 232.826004 165.404007 234.46701 158.841995 234.39801 Z M 67.582001 322.684998 C 60.472698 322.684998 53.773399 321.317017 47.484402 318.583008 C 41.195301 315.916992 35.658199 312.190979 30.873001 307.406006 C 26.0879 302.621002 22.328121 297.083984 19.59375 290.794983 C 16.859381 284.505981 15.492188 277.772003 15.492188 270.595001 C 15.492188 263.416992 16.859381 256.718018 19.59375 250.496994 C 22.328121 244.207993 26.0879 238.671005 30.873001 233.886002 C 35.658199 229.031998 41.195301 225.272003 47.484402 222.606003 C 53.773399 219.872009 60.472698 218.505005 67.582001 218.505005 C 74.759804 218.505005 81.493202 219.872009 87.782204 222.606003 C 94.071297 225.272003 99.608398 228.998001 104.3936 233.783005 C 109.178703 238.568008 112.904297 244.104996 115.57 250.395004 C 118.305 256.684021 119.671997 263.416992 119.671997 270.595001 C 119.671997 277.703979 118.305 284.403015 115.57 290.692017 C 112.835899 296.981018 109.042 302.518982 104.188499 307.304016 C 99.403297 312.088989 93.866203 315.848999 87.577103 318.583008 C 81.288101 321.317017 74.623001 322.684998 67.582001 322.684998 Z M 43.2803 278.593018 L 68.197304 278.593018 C 69.974602 278.593018 71.444305 277.977997 72.6064 276.747009 C 73.836899 275.516998 74.452103 274.013 74.452103 272.234985 L 74.452103 240.242996 C 74.452103 238.533997 73.836899 237.098999 72.6064 235.936996 C 71.375999 234.706009 69.906204 234.091003 68.197304 234.091003 C 66.419899 234.091003 64.916 234.706009 63.685501 235.936996 C 62.455101 237.098999 61.839802 238.533997 61.839802 240.242996 L 61.839802 265.97998 L 43.2803 265.97998 C 41.571301 265.97998 40.067402 266.596008 38.7686 267.825989 C 37.538101 269.057007 36.922901 270.526001 36.922901 272.234985 C 36.922901 273.944 37.538101 275.447998 38.7686 276.747009 C 39.999001 277.977997 41.502899 278.593018 43.2803 278.593018 Z"/>
</svg>
